<svg xmlns="http://www.w3.org/2000/svg" xmlns:xlink="http://www.w3.org/1999/xlink" version="1.1" id="Layer_1" x="0px" y="0px" viewBox="32.314 -0.339 27.873 100" enable-background="new 32.314 -0.339 27.873 100" xml:space="preserve" height="100px" width="100px">
<path d="M58.793,19.576c0-7.18-6.981-14.915-6.981-14.915l-1.306,12.645c0,0-2.575-12.645-4.255-12.645  c-1.904,0-4.255,12.645-4.255,12.645L40.614,4.823c0,0-6.906,7.572-6.906,14.753c0,8.219,4.063,15.097,9.535,16.981l-0.935,55.118  c0,1.649,2.293,2.986,3.942,2.986c1.649,0,3.942-1.337,3.942-2.986l-0.935-55.118C54.729,34.672,58.793,27.795,58.793,19.576z"/>
</svg>