<?xml version="1.0" encoding="utf-8"?>
<!-- Generator: Adobe Illustrator 16.0.0, SVG Export Plug-In . SVG Version: 6.00 Build 0)  -->
<!DOCTYPE svg PUBLIC "-//W3C//DTD SVG 1.1//EN" "http://www.w3.org/Graphics/SVG/1.1/DTD/svg11.dtd">
<svg version="1.1" id="Layer_1" xmlns="http://www.w3.org/2000/svg" xmlns:xlink="http://www.w3.org/1999/xlink" x="0px" y="0px"
	 width="43.123px" height="27.137px" viewBox="0 0 43.123 27.137" enable-background="new 0 0 43.123 27.137" xml:space="preserve">
<path fill="#FFFFFF" d="M12.677,22.812c0.006-0.032,0.012-0.063,0.016-0.099c0.053-0.396-0.02-0.676-0.143-0.858
	c-0.051-0.077-0.113-0.137-0.178-0.179c-0.119-0.076-0.289-0.113-0.414-0.029c-0.084,0.059-0.125,0.149-0.119,0.251
	c0.006,0.077,0.039,0.171,0.113,0.278c0.08,0.121,0.209,0.256,0.398,0.405C12.457,22.665,12.566,22.74,12.677,22.812L12.677,22.812z
	 M3.933,14.189c0.238-0.081,0.459-0.175,0.662-0.278c-0.203-0.104-0.424-0.199-0.662-0.28c-0.271-0.092-0.5-0.132-0.688-0.135
	c-0.24-0.004-0.582,0.061-0.672,0.323c-0.021,0.062-0.021,0.121,0,0.185c0.09,0.263,0.432,0.329,0.672,0.325
	C3.433,14.322,3.662,14.282,3.933,14.189L3.933,14.189z M12.677,5.007c-0.266,0.175-0.545,0.368-0.725,0.635
	c-0.074,0.108-0.107,0.201-0.113,0.279c-0.006,0.102,0.035,0.194,0.119,0.251c0.125,0.084,0.295,0.047,0.414-0.03
	c0.064-0.042,0.127-0.101,0.18-0.179C12.736,5.689,12.736,5.32,12.677,5.007L12.677,5.007z M31.089,22.812
	c0.111-0.071,0.221-0.146,0.326-0.229c0.191-0.149,0.318-0.284,0.4-0.405c0.072-0.107,0.104-0.201,0.109-0.278
	c0.01-0.102-0.033-0.192-0.117-0.251c-0.125-0.084-0.295-0.047-0.414,0.029c-0.064,0.042-0.125,0.102-0.18,0.179
	c-0.123,0.185-0.193,0.464-0.145,0.858C31.078,22.747,31.083,22.78,31.089,22.812L31.089,22.812z M39.833,14.189
	c0.271,0.094,0.5,0.133,0.688,0.138c0.24,0.004,0.582-0.062,0.672-0.325c0.021-0.062,0.021-0.122,0-0.185
	c-0.09-0.264-0.432-0.329-0.672-0.323c-0.188,0.003-0.416,0.043-0.688,0.135c-0.238,0.082-0.459,0.176-0.66,0.28
	C39.375,14.015,39.595,14.108,39.833,14.189L39.833,14.189z M31.089,5.007C31.032,5.32,31.03,5.69,31.216,5.964
	c0.053,0.078,0.113,0.137,0.178,0.179c0.119,0.077,0.289,0.114,0.414,0.03c0.084-0.057,0.127-0.149,0.119-0.251
	c-0.006-0.078-0.039-0.171-0.111-0.279C31.634,5.375,31.354,5.182,31.089,5.007L31.089,5.007z M21.884,2.671
	c-3.357,0-6.713,0.75-9.072,2.249c0.08,0.369,0.082,0.803-0.137,1.127c-0.064,0.095-0.141,0.168-0.223,0.221
	c-0.168,0.108-0.402,0.146-0.578,0.027c-0.127-0.086-0.195-0.231-0.184-0.385c0.008-0.104,0.049-0.223,0.137-0.354
	c0.203-0.299,0.516-0.513,0.814-0.707c-0.117-0.437-0.375-0.785-0.713-1.024c-0.438-0.312-0.99-0.428-1.518-0.355
	C9.773,3.555,9.123,3.913,8.634,4.602C7.863,5.688,7.638,7.151,7.412,8.622C7.09,10.704,6.767,12.8,4.906,13.909
	c1.861,1.108,2.184,3.205,2.506,5.289c0.227,1.47,0.451,2.934,1.223,4.02c0.488,0.689,1.139,1.047,1.777,1.132
	c0.527,0.071,1.08-0.045,1.518-0.354c0.338-0.239,0.596-0.588,0.713-1.025c-0.127-0.082-0.254-0.166-0.373-0.259
	c-0.213-0.163-0.352-0.313-0.441-0.448c-0.088-0.131-0.129-0.25-0.137-0.352c-0.012-0.154,0.057-0.301,0.184-0.387
	c0.176-0.117,0.41-0.082,0.578,0.027c0.082,0.052,0.158,0.125,0.223,0.221c0.141,0.208,0.225,0.524,0.166,0.961
	c-0.008,0.059-0.018,0.112-0.029,0.166c0.6,0.383,1.262,0.713,1.973,0.998c0.812,0.323,1.688,0.584,2.602,0.783
	c1.436,0.312,2.967,0.467,4.498,0.468c1.529-0.001,3.061-0.154,4.496-0.468c0.914-0.199,1.789-0.46,2.603-0.783
	c0.711-0.285,1.373-0.615,1.974-0.998c-0.013-0.054-0.021-0.107-0.028-0.166c-0.06-0.437,0.024-0.753,0.166-0.961
	c0.063-0.096,0.141-0.169,0.223-0.221c0.17-0.109,0.402-0.146,0.578-0.027c0.129,0.086,0.194,0.23,0.185,0.387
	c-0.009,0.102-0.047,0.221-0.138,0.352c-0.088,0.135-0.229,0.285-0.44,0.448c-0.119,0.093-0.246,0.177-0.373,0.259
	c0.117,0.438,0.375,0.786,0.713,1.025c0.438,0.312,0.99,0.428,1.521,0.354c0.637-0.085,1.286-0.44,1.776-1.132
	c0.771-1.086,0.996-2.55,1.224-4.02c0.319-2.084,0.645-4.181,2.506-5.289c-1.861-1.109-2.187-3.205-2.506-5.288
	c-0.228-1.472-0.453-2.936-1.224-4.021C34.651,3.913,34,3.554,33.365,3.469c-0.529-0.07-1.082,0.046-1.521,0.355
	c-0.338,0.239-0.596,0.589-0.713,1.024c0.3,0.194,0.613,0.408,0.813,0.707c0.091,0.131,0.129,0.25,0.138,0.354
	c0.012,0.152-0.056,0.299-0.185,0.385c-0.176,0.119-0.408,0.081-0.578-0.027c-0.082-0.053-0.157-0.126-0.223-0.221
	c-0.22-0.324-0.216-0.758-0.138-1.127C28.597,3.42,25.24,2.671,21.884,2.671L21.884,2.671z M21.884,25.297
	c-1.543,0-3.084-0.156-4.529-0.471c-0.922-0.2-1.805-0.466-2.625-0.791c-0.703-0.281-1.359-0.609-1.955-0.984
	c-0.133,0.451-0.406,0.812-0.76,1.064c-0.469,0.33-1.057,0.455-1.623,0.381c-0.676-0.09-1.365-0.469-1.881-1.193
	c-0.791-1.115-1.02-2.596-1.248-4.083c-0.32-2.071-0.641-4.155-2.51-5.225c-0.234,0.127-0.49,0.238-0.773,0.336
	c-0.285,0.097-0.529,0.14-0.732,0.144c-0.311,0.005-0.703-0.095-0.814-0.426c-0.033-0.093-0.033-0.188,0-0.279
	c0.111-0.331,0.504-0.431,0.814-0.426c0.203,0.004,0.447,0.046,0.732,0.144c0.283,0.098,0.539,0.208,0.773,0.338
	c1.869-1.069,2.189-3.153,2.51-5.227C7.492,7.111,7.72,5.631,8.511,4.515c0.516-0.726,1.205-1.104,1.881-1.194
	c0.564-0.073,1.156,0.052,1.623,0.384c0.354,0.251,0.627,0.611,0.76,1.062c2.379-1.497,5.744-2.245,9.109-2.246
	c3.363,0,6.729,0.749,9.109,2.246c0.131-0.451,0.404-0.812,0.758-1.062c0.469-0.333,1.059-0.458,1.625-0.384
	c0.676,0.092,1.363,0.47,1.879,1.194c0.791,1.116,1.02,2.596,1.25,4.083c0.318,2.071,0.641,4.156,2.508,5.227
	c0.234-0.129,0.49-0.24,0.773-0.338c0.285-0.097,0.529-0.14,0.732-0.144c0.311-0.005,0.703,0.095,0.814,0.426
	c0.031,0.093,0.031,0.188,0,0.279c-0.111,0.331-0.506,0.431-0.814,0.426c-0.203-0.004-0.447-0.047-0.732-0.144
	c-0.283-0.098-0.539-0.208-0.773-0.336c-1.867,1.067-2.188,3.151-2.508,5.225c-0.23,1.487-0.459,2.968-1.25,4.083
	c-0.516,0.727-1.203,1.104-1.879,1.193c-0.566,0.074-1.156-0.051-1.625-0.381c-0.354-0.254-0.627-0.613-0.758-1.064
	c-0.596,0.375-1.254,0.703-1.957,0.984c-0.82,0.325-1.703,0.591-2.623,0.791C24.966,25.141,23.425,25.297,21.884,25.297
	L21.884,25.297z"/>
</svg>
